<?xml version="1.0" standalone="no"?>
<!DOCTYPE svg PUBLIC "-//W3C//DTD SVG 1.1//EN" "http://www.w3.org/Graphics/SVG/1.1/DTD/svg11.dtd" >
<svg xmlns="http://www.w3.org/2000/svg">
<metadata>Generated by IcoMoon</metadata>
<defs>
<font id="Samsung_icons" horiz-adv-x="1024">
<font-face units-per-em="1024" ascent="960" descent="-64" />
<missing-glyph horiz-adv-x="1024" />
<glyph unicode="&#x20;" horiz-adv-x="512" d="" />
<glyph unicode="&#xe900;" glyph-name="Fonts" d="M931.84 960h-839.68c-51.2 0-92.16-37.547-92.16-85.333v-849.92c0-51.2 40.96-88.747 92.16-88.747h843.093c51.2 0 92.16 37.547 92.16 85.333v853.333c-3.413 47.787-44.373 85.333-95.573 85.333zM737.28 574.293l-3.413 13.653c-13.653 54.613-27.307 75.093-34.133 85.333-6.827 6.827-27.307 17.067-92.16 17.067h-34.133v-443.733c0-40.96 10.24-51.2 10.24-51.2 3.413-3.413 17.067-10.24 61.44-13.653h17.067v-51.2h-296.96v51.2h17.067c47.787 3.413 58.027 13.653 61.44 13.653 0 0 10.24 10.24 10.24 61.44v433.493h-34.133c-58.027 0-81.92-10.24-92.16-17.067s-23.893-30.72-34.133-85.333l-3.413-13.653h-54.613l6.827 187.733h542.72l6.827-187.733h-54.613z" />
<glyph unicode="&#xe901;" glyph-name="Photos" d="M962.56 960c-300.373 0-600.747 0-901.12 0-40.96 0-61.44-20.48-61.44-61.44 0-426.667 0-474.453 0-901.12 0-40.96 20.48-61.44 61.44-61.44 300.373 0 597.333 0 897.707 0 40.96 0 61.44 20.48 61.44 61.44 0 211.627 0 47.787 0 259.413s0 426.667 0 638.293c3.413 44.373-17.067 64.853-58.027 64.853zM914.773 48.64c-269.653 0-539.307 0-805.547 0 0 249.173 0 552.96 0 805.547 269.653 0 539.307 0 805.547 0 0-252.587 0-556.373 0-805.547zM843.093 198.827l-218.453 296.96c-3.413 6.827-20.48 23.893-44.373 23.893s-37.547-20.48-44.373-27.307l-194.56-286.72c-3.413-6.827-6.827-10.24-10.24-17.067-6.827-13.653-6.827-34.133 0-47.787 10.24-13.653 23.893-23.893 40.96-23.893 3.413 0 6.827 0 10.24 0h423.253c27.307 0 40.96 13.653 47.787 27.307 10.24 27.307-6.827 47.787-10.24 54.613zM460.8 642.56c0 40.96-17.067 75.093-47.787 102.4-27.307 27.307-68.267 37.547-105.813 34.133-75.093-6.827-136.533-75.093-129.707-153.6 3.413-37.547 20.48-71.68 47.787-95.573s58.027-34.133 88.747-34.133c3.413 0 6.827 0 10.24 0 37.547 3.413 75.093 17.067 98.987 47.787 23.893 23.893 37.547 61.44 37.547 98.987z" />
<glyph unicode="&#xe902;" glyph-name="Accessibility" d="M512-64c-283.307 0-512 228.693-512 512s232.107 515.413 518.827 512c279.893-3.413 505.173-232.107 505.173-515.413 0-279.893-228.693-508.587-512-508.587zM409.6 618.667c0-3.413 0-6.827 0-6.827 0-51.2 0-105.813 0-157.013 0-23.893-3.413-44.373-10.24-68.267 0-3.413-3.413-6.827-3.413-10.24-23.893-88.747-47.787-180.907-71.68-269.653-6.827-20.48 6.827-40.96 27.307-47.787s40.96 3.413 47.787 27.307c27.307 95.573 58.027 191.147 85.333 283.307 0 3.413 3.413 6.827 10.24 6.827s10.24 0 17.067 0c3.413 0 6.827 0 10.24-6.827 13.653-44.373 30.72-92.16 44.373-136.533 17.067-47.787 34.133-98.987 51.2-146.773 3.413-10.24 10.24-20.48 20.48-23.893 13.653-6.827 27.307-6.827 40.96 3.413s17.067 23.893 10.24 40.96c-30.72 102.4-61.44 204.8-92.16 307.2 0 3.413-3.413 6.827-3.413 10.24 0 61.44 0 126.293 0 187.733 0 3.413 0 6.827 6.827 6.827 64.853 6.827 129.707 17.067 191.147 23.893 20.48 3.413 30.72 17.067 30.72 37.547s-17.067 34.133-37.547 30.72c-6.827 0-13.653 0-20.48 0-44.373-3.413-88.747-6.827-129.707-10.24-27.307-3.413-54.613-6.827-85.333-6.827-44.373 0-88.747-3.413-129.707 3.413-47.787 3.413-95.573 6.827-143.36 13.653-13.653 0-30.72 3.413-44.373 3.413-17.067 0-34.133-13.653-34.133-30.72 0-20.48 10.24-34.133 27.307-37.547 47.787-6.827 92.16-13.653 136.533-20.48 17.067 0 34.133-3.413 47.787-6.827zM505.173 724.48c34.133 0 64.853 27.307 68.267 64.853 0 37.547-27.307 68.267-64.853 68.267s-64.853-30.72-64.853-64.853c-6.827-37.547 23.893-64.853 61.44-68.267z" />
<glyph unicode="&#xe903;" glyph-name="Animation" d="M505.173 570.88c51.2 102.4 187.733-20.48 273.067 139.947 44.373 81.92 10.24 184.32-71.68 225.28-95.573 51.2-218.453 0-269.653-98.987-95.573-184.32-30.72-426.667 20.48-450.56 13.653-6.827 23.893 0 30.72 10.24 13.653 30.72-23.893 95.573 17.067 174.080zM713.387 321.707c61.44-95.573-112.64-150.187-13.653-307.2 51.2-78.507 153.6-102.4 232.107-51.2 92.16 58.027 109.227 191.147 51.2 283.307-112.64 174.080-351.573 238.933-399.36 208.213-13.653-6.827-13.653-20.48-6.827-30.72 13.653-27.307 88.747-27.307 136.533-102.4zM426.667 253.44c-112.64-3.413-75.093 174.080-259.413 167.253-92.16-3.413-163.84-81.92-160.427-174.080 3.413-109.227 109.227-187.733 218.453-184.32 208.213 10.24 382.293 187.733 382.293 242.347 0 13.653-10.24 23.893-23.893 20.48-30.72 0-64.853-64.853-157.013-71.68z" />
<glyph unicode="&#xe904;" glyph-name="App" d="M1024 171.52c0 20.48-17.067 37.547-37.547 37.547h-197.973c-20.48 0-37.547-17.067-37.547-37.547v-197.973c0-20.48 17.067-37.547 37.547-37.547h197.973c20.48 0 37.547 17.067 37.547 37.547v197.973zM648.533 171.52c0 20.48-17.067 37.547-37.547 37.547h-197.973c-20.48 0-37.547-17.067-37.547-37.547v-197.973c0-20.48 17.067-37.547 37.547-37.547h197.973c20.48 0 37.547 17.067 37.547 37.547v197.973zM273.067 171.52c0 20.48-17.067 37.547-37.547 37.547h-197.973c-20.48 0-37.547-17.067-37.547-37.547v-197.973c0-20.48 17.067-37.547 37.547-37.547h197.973c20.48 0 37.547 17.067 37.547 37.547v197.973zM1024 546.987c0 20.48-17.067 37.547-37.547 37.547h-197.973c-20.48 0-37.547-17.067-37.547-37.547v-197.973c0-20.48 17.067-37.547 37.547-37.547h197.973c20.48 0 37.547 17.067 37.547 37.547v197.973zM648.533 546.987c0 20.48-17.067 37.547-37.547 37.547h-197.973c-20.48 0-37.547-17.067-37.547-37.547v-197.973c0-20.48 17.067-37.547 37.547-37.547h197.973c20.48 0 37.547 17.067 37.547 37.547v197.973zM273.067 546.987c0 20.48-17.067 37.547-37.547 37.547h-197.973c-20.48 0-37.547-17.067-37.547-37.547v-197.973c0-20.48 17.067-37.547 37.547-37.547h197.973c20.48 0 37.547 17.067 37.547 37.547v197.973zM1024 922.453c0 20.48-17.067 37.547-37.547 37.547h-197.973c-20.48 0-37.547-17.067-37.547-37.547v-197.973c0-20.48 17.067-37.547 37.547-37.547h197.973c20.48 0 37.547 17.067 37.547 37.547v197.973zM648.533 922.453c0 20.48-17.067 37.547-37.547 37.547h-197.973c-20.48 0-37.547-17.067-37.547-37.547v-197.973c0-20.48 17.067-37.547 37.547-37.547h197.973c20.48 0 37.547 17.067 37.547 37.547v197.973zM273.067 724.48c0-20.48-17.067-37.547-37.547-37.547h-197.973c-20.48 0-37.547 17.067-37.547 37.547v197.973c0 20.48 17.067 37.547 37.547 37.547h197.973c20.48 0 37.547-17.067 37.547-37.547v-197.973z" />
<glyph unicode="&#xe905;" glyph-name="Back" d="M965.973 512.853h-750.933l235.52 235.52c27.307 27.307 27.307 68.267 0 88.747-27.307 27.307-68.267 27.307-88.747 0l-344.747-341.333c-10.24-13.653-17.067-30.72-17.067-47.787s6.827-34.133 17.067-47.787l344.747-344.747c27.307-27.307 68.267-27.307 88.747 0 27.307 27.307 27.307 68.267 0 88.747l-235.52 235.52h750.933c34.133 0 58.027 27.307 58.027 64.853 0 40.96-23.893 68.267-58.027 68.267z" />
<glyph unicode="&#xe906;" glyph-name="Brightness" d="M460.8 96.427c-88.747 20.48-81.92 17.067-163.84 68.267-3.413 0-3.413-3.413-6.827-6.827-20.48-20.48-44.373-44.373-64.853-64.853s-51.2-20.48-71.68 0c-20.48 20.48-20.48 51.2 0 71.68 27.307 23.893 51.2 44.373 75.093 68.267-34.133 47.787-58.027 102.4-68.267 163.84-3.413 0-3.413 0-6.827 0-30.72 0-61.44 0-92.16 0s-54.613 23.893-51.2 54.613c0 27.307 23.893 47.787 51.2 47.787 30.72 0 61.44 0 92.16 0 3.413 0 3.413 0 6.827 0 10.24 61.44 30.72 112.64 68.267 163.84-3.413 0-6.827 3.413-6.827 3.413-23.893 23.893-44.373 44.373-64.853 68.267-20.48 17.067-20.48 51.2-3.413 71.68 20.48 17.067 51.2 17.067 71.68-3.413 23.893-23.893 47.787-44.373 71.68-71.68 47.787 34.133 102.4 58.027 163.84 68.267 0 3.413 0 3.413 0 6.827 0 30.72 0 61.44 0 92.16s23.893 54.613 54.613 51.2c27.307 0 47.787-23.893 47.787-51.2 0-30.72 0-61.44 0-92.16 0-3.413 0-3.413 0-6.827 61.44-10.24 112.64-30.72 163.84-68.267 3.413 3.413 3.413 3.413 6.827 6.827 20.48 20.48 44.373 44.373 64.853 64.853s51.2 20.48 71.68 0c17.067-17.067 17.067-47.787-3.413-68.267-23.893-23.893-47.787-47.787-71.68-71.68 34.133-47.787 58.027-102.4 68.267-163.84 3.413 0 6.827 0 6.827 0 30.72 0 61.44 0 92.16 0 23.893 0 44.373-17.067 51.2-37.547 6.827-23.893-3.413-47.787-23.893-58.027-6.827-3.413-17.067-6.827-27.307-6.827-30.72 0-61.44 0-92.16 0-3.413 0-3.413 0-6.827 0-23.893-98.987-23.893-92.16-68.267-163.84 0-3.413 3.413-3.413 6.827-6.827 20.48-20.48 44.373-44.373 64.853-64.853s20.48-51.2 0-71.68c-20.48-20.48-51.2-20.48-71.68 0-23.893 23.893-47.787 47.787-71.68 71.68-47.787-34.133-102.4-58.027-163.84-68.267 0-3.413 0-3.413 0-6.827 0-30.72 0-61.44 0-92.16s-23.893-54.613-54.613-51.2c-27.307 0-47.787 23.893-47.787 51.2 0 30.72 0 61.44 0 92.16 3.413 3.413 3.413 6.827 3.413 10.24zM512 700.587c0-170.667 0-337.92 0-505.173 92.16 3.413 163.84 40.96 211.627 119.467 54.613 88.747 54.613 177.493 0 266.24-44.373 78.507-119.467 116.053-211.627 119.467z" />
<glyph unicode="&#xe907;" glyph-name="Cancel" d="M1006.933 45.227l-406.187 402.773 406.187 402.773c10.24 13.653 17.067 30.72 17.067 47.787s-6.827 34.133-17.067 44.373c-23.893 23.893-64.853 23.893-88.747 0l-406.187-406.187-402.773 406.187c-23.893 23.893-64.853 23.893-88.747 0-13.653-13.653-20.48-27.307-20.48-44.373s6.827-34.133 17.067-44.373l406.187-406.187-406.187-402.773c-10.24-13.653-17.067-27.307-17.067-44.373s6.827-34.133 17.067-44.373c23.893-23.893 64.853-23.893 88.747 0l406.187 402.773 402.773-402.773c23.893-23.893 64.853-23.893 88.747 0 13.653 13.653 17.067 27.307 17.067 44.373 3.413 17.067-3.413 30.72-13.653 44.373z" />
<glyph unicode="&#xe908;" glyph-name="Collection" d="M211.627 386.56c-51.2 0-95.573 44.373-95.573 95.573s44.373 95.573 95.573 95.573c51.2 0 95.573-44.373 95.573-95.573s-44.373-95.573-95.573-95.573zM361.813 605.013c-51.2 0-95.573 44.373-95.573 95.573s44.373 95.573 95.573 95.573c51.2 0 95.573-44.373 95.573-95.573s-44.373-95.573-95.573-95.573zM634.88 645.973c-51.2 0-95.573 44.373-95.573 95.573s44.373 95.573 95.573 95.573c51.2 0 95.573-44.373 95.573-95.573 3.413-51.2-44.373-95.573-95.573-95.573zM826.027 434.347c-51.2 0-95.573 44.373-95.573 95.573s44.373 95.573 95.573 95.573c51.2 0 95.573-44.373 95.573-95.573s-44.373-95.573-95.573-95.573zM512 960c-283.307 0-512-228.693-512-512s228.693-512 512-512c44.373 0 85.333 40.96 85.333 85.333 0 23.893-6.827 40.96-23.893 58.027-10.24 17.067-23.893 34.133-23.893 58.027 0 44.373 40.96 85.333 85.333 85.333h102.4c160.427 0 283.307 126.293 283.307 283.307 3.413 249.173-225.28 453.973-508.587 453.973z" />
<glyph unicode="&#xe909;" d="M962.56 960c-300.373 0-600.747 0-901.12 0-40.96 0-61.44-20.48-61.44-61.44 0-426.667 0-474.453 0-901.12 0-40.96 20.48-61.44 61.44-61.44 300.373 0 597.333 0 897.707 0 40.96 0 61.44 20.48 61.44 61.44 0 211.627 0 47.787 0 259.413s0 426.667 0 638.293c3.413 44.373-17.067 64.853-58.027 64.853z" />
<glyph unicode="&#xe90a;" glyph-name="Finish" d="M512 960c283.307 0 512-228.693 512-512s-228.693-512-512-512c-283.307 0-512 228.693-512 512s228.693 512 512 512zM754.347 666.453c-23.893 0-44.373-13.653-54.613-27.307l-296.96-334.507-95.573 122.88c-10.24 10.24-20.48 17.067-37.547 17.067-40.96 0-64.853-34.133-64.853-58.027 0-20.48 10.24-34.133 17.067-40.96l139.947-139.947c10.24-10.24 23.893-17.067 37.547-17.067s27.307 6.827 37.547 17.067l361.813 361.813c10.24 10.24 17.067 27.307 17.067 40.96 0 30.72-23.893 58.027-61.44 58.027z" />
<glyph unicode="&#xe90b;" glyph-name="Home-screen-shortcut" d="M962.56 389.973h-109.227v-354.987c0-27.307-23.893-51.2-51.2-51.2h-139.947c0 0-27.307 0-27.307 27.307v242.347c0 58.027-54.613 109.227-116.053 109.227-58.027 0-116.053-47.787-116.053-109.227v-242.347c0-30.72-27.307-30.72-27.307-30.72h-139.947c-27.307 0-51.2 23.893-51.2 51.2v358.4h-122.88c-61.44 0-78.507 61.44-44.373 102.4l457.387 406.187c20.48 20.48 54.613 20.48 75.093 0l453.973-402.773c37.547-30.72 23.893-105.813-40.96-105.813z" />
<glyph unicode="&#xe90c;" glyph-name="Home-screen-wallpaper" d="M805.547 960h-587.093c-51.2 0-92.16-37.547-92.16-85.333v-849.92c0-47.787 40.96-85.333 92.16-85.333h590.507c51.2 0 92.16 37.547 92.16 85.333v849.92c-3.413 47.787-44.373 85.333-95.573 85.333zM730.453 437.76h-54.613v-170.667c0-13.653-10.24-23.893-23.893-23.893h-85.333v129.707c0 27.307-23.893 51.2-51.2 51.2s-51.2-23.893-51.2-51.2v-129.707h-81.92c-13.653 0-23.893 10.24-23.893 23.893v170.667h-61.44c-30.72 0-37.547 30.72-20.48 47.787l218.453 194.56c10.24 10.24 27.307 10.24 37.547 0l218.453-194.56c13.653-13.653 6.827-47.787-20.48-47.787z" />
<glyph unicode="&#xe90d;" glyph-name="Information" d="M512 960c-283.307 0-512-228.693-512-512s228.693-512 512-512c283.307 0 512 228.693 512 512s-228.693 512-512 512v0zM580.267 168.107c0-23.893-20.48-47.787-47.787-47.787h-58.027c-23.893 0-47.787 20.48-47.787 47.787v296.96c0 27.307 20.48 47.787 47.787 47.787h58.027c23.893 0 47.787-20.48 47.787-47.787v-296.96zM505.173 584.533c-47.787 0-88.747 40.96-88.747 88.747 0 51.2 40.96 88.747 88.747 88.747 51.2 0 88.747-40.96 88.747-88.747s-40.96-88.747-88.747-88.747z" />
<glyph unicode="&#xe90e;" glyph-name="Lock-screen-shortcut" d="M781.653 516.267v177.493c0 146.773-119.467 266.24-266.24 266.24s-266.24-119.467-266.24-266.24v-177.493c-78.507 0-133.12-54.613-133.12-133.12v-314.027c0-78.507 54.613-133.12 133.12-133.12h532.48c78.507 0 133.12 54.613 133.12 133.12v314.027c0 78.507-51.2 133.12-133.12 133.12zM624.64 516.267h-221.867v170.667c0 64.853 44.373 109.227 109.227 109.227s109.227-44.373 109.227-109.227v-170.667z" />
<glyph unicode="&#xe90f;" glyph-name="Lock-screen-wallpaper" d="M812.373 960h-590.507c-51.2 0-92.16-37.547-92.16-85.333v-849.92c0-51.2 40.96-88.747 92.16-88.747h590.507c51.2 0 92.16 37.547 92.16 85.333v853.333c-3.413 47.787-44.373 85.333-92.16 85.333zM703.147 267.093c0-37.547-23.893-61.44-61.44-61.44h-249.173c-37.547 0-61.44 23.893-61.44 61.44v146.773c0 37.547 23.893 61.44 61.44 61.44v81.92c0 68.267 54.613 126.293 126.293 126.293 68.267 0 126.293-58.027 126.293-126.293v-81.92c37.547 0 61.44-23.893 61.44-61.44v-146.773zM515.413 622.080c-34.133 0-54.613-23.893-54.613-54.613v-88.747h112.64v88.747c0 30.72-23.893 54.613-58.027 54.613z" />
<glyph unicode="&#xe910;" glyph-name="More" d="M890.88 314.88c-75.093 0-136.533 61.44-136.533 133.12 0 75.093 61.44 136.533 136.533 136.533s133.12-61.44 133.12-136.533c0-75.093-61.44-133.12-133.12-133.12zM512 314.88c-75.093 0-133.12 61.44-133.12 133.12 0 75.093 61.44 136.533 133.12 136.533 75.093 0 133.12-61.44 133.12-136.533s-58.027-133.12-133.12-133.12zM133.12 314.88c-71.68 0-133.12 58.027-133.12 133.12s61.44 136.533 133.12 136.533c75.093 0 133.12-61.44 133.12-136.533 3.413-75.093-58.027-133.12-133.12-133.12z" />
<glyph unicode="&#xe911;" glyph-name="Phone-name" d="M805.547 960h-587.093c-51.2 0-92.16-37.547-92.16-85.333v-849.92c0-47.787 40.96-85.333 92.16-85.333h590.507c51.2 0 92.16 37.547 92.16 85.333v849.92c-3.413 47.787-44.373 85.333-95.573 85.333zM512 704c64.853 0 116.053-51.2 116.053-116.053s-51.2-116.053-116.053-116.053c-64.853 0-116.053 51.2-116.053 116.053s51.2 116.053 116.053 116.053zM713.387 250.027c0-44.373-402.773-47.787-402.773 0v54.613c0 61.44 44.373 109.227 95.573 136.533l13.653 6.827c0 0 47.787-20.48 88.747-20.48s88.747 20.48 88.747 20.48l17.067-6.827c51.2-27.307 95.573-75.093 95.573-136.533v-54.613z" />
<glyph unicode="&#xe912;" glyph-name="Popular-app" d="M904.533 960h-785.067c-64.853 0-119.467-37.547-119.467-85.333v-849.92c0-51.2 54.613-88.747 119.467-88.747h781.653c64.853 0 119.467 37.547 119.467 85.333v853.333c3.413 47.787-51.2 85.333-116.053 85.333zM798.72 461.653l-95.573-95.573v-153.6c0-27.307-34.133-51.2-61.44-40.96l-129.707 58.027-133.12-58.027c-27.307-10.24-61.44 10.24-61.44 40.96v153.6l-95.573 95.573c-20.48 20.48-10.24 64.853 20.48 71.68l153.6 37.547 78.507 136.533c6.827 13.653 20.48 20.48 34.133 20.48 17.067 0 30.72-6.827 40.96-20.48l78.507-136.533 153.6-37.547c27.307-10.24 40.96-51.2 17.067-71.68z" />
<glyph unicode="&#xe913;" glyph-name="Quick-options" d="M0 448c0 276.48 221.867 505.173 508.587 505.173 283.307 3.413 515.413-221.867 515.413-501.76 0-276.48-221.867-508.587-508.587-508.587-286.72-3.413-515.413 225.28-515.413 505.173zM259.413 625.493c6.827 0 10.24 0 17.067 0 40.96 0 81.92 0 119.467 0 6.827 0 17.067 3.413 20.48 6.827 23.893 13.653 47.787 30.72 71.68 44.373 6.827 3.413 17.067 10.24 13.653 20.48s-10.24 10.24-20.48 10.24c-88.747 0-177.493 0-266.24 0-27.307 0-44.373-17.067-44.373-44.373 0-146.773 0-293.547 0-436.907 0-27.307 17.067-44.373 44.373-44.373 34.133 0 68.267 0 102.4 0 150.187 0 300.373 0 450.56 0 27.307 0 44.373 17.067 44.373 40.96 0 61.44 0 122.88 0 184.32 0 6.827-3.413 13.653-10.24 17.067-3.413 3.413-13.653 0-17.067-3.413-13.653-10.24-27.307-20.48-40.96-30.72-13.653-6.827-17.067-17.067-17.067-30.72 0-30.72 0-58.027 0-88.747-160.427 0-317.44 0-477.867 0 10.24 112.64 10.24 232.107 10.24 354.987zM699.733 683.52c-51.2-3.413-95.573-10.24-143.36-27.307-71.68-27.307-129.707-64.853-167.253-133.12-17.067-30.72-27.307-64.853-34.133-102.4 102.4 81.92 221.867 95.573 344.747 85.333 0-30.72 0-58.027 0-88.747 75.093 58.027 150.187 116.053 225.28 174.080-71.68 61.44-146.773 119.467-225.28 177.493 0-30.72 0-58.027 0-85.333z" />
<glyph unicode="&#xe914;" glyph-name="Ringtone" d="M938.667 748.373v177.493c0 10.24-6.827 20.48-17.067 27.307-6.827 6.827-20.48 6.827-30.72 6.827l-518.827-150.187c-23.893-6.827-34.133-23.893-34.133-47.787 0-177.493 17.067-358.4 17.067-535.893v-27.307c-34.133 10.24-92.16 13.653-133.12 6.827-44.373-6.827-81.92-23.893-105.813-51.2-34.133-34.133-34.133-95.573-27.307-116.053 6.827-23.893 20.48-47.787 47.787-64.853 34.133-23.893 81.92-37.547 133.12-37.547 47.787 0 102.4 10.24 133.12 34.133 37.547 23.893 58.027 61.44 58.027 105.813 0 105.813 0 238.933 0 344.747v150.187l358.4 105.813 17.067-327.68c-44.373 13.653-109.227 17.067-157.013 3.413-34.133-10.24-61.44-23.893-81.92-47.787-37.547-40.96-37.547-122.88 0-160.427 10.24-10.24 20.48-20.48 34.133-27.307 27.307-17.067 58.027-27.307 95.573-30.72 6.827 0 17.067 0 23.893 0 44.373 0 95.573 10.24 129.707 30.72 40.96 23.893 61.44 61.44 61.44 109.227-3.413 167.253-3.413 354.987-3.413 522.24z" />
<glyph unicode="&#xe915;" glyph-name="Search" d="M1010.347 38.4l-235.52 235.52c54.613 75.093 85.333 163.84 85.333 256-3.413 238.933-194.56 430.080-430.080 430.080-238.933 0-430.080-191.147-430.080-430.080 0-235.52 191.147-430.080 430.080-430.080 92.16 0 184.32 30.72 256 85.333l235.52-235.52c10.24-10.24 20.48-13.653 34.133-13.653s27.307 6.827 34.133 13.653l17.067 17.067c10.24 10.24 13.653 23.893 13.653 34.133 3.413 13.653-3.413 27.307-10.24 37.547zM430.080 226.133c-167.253 0-307.2 136.533-307.2 307.2 0 167.253 136.533 307.2 307.2 307.2s307.2-136.533 307.2-307.2c-3.413-170.667-139.947-307.2-307.2-307.2z" />
<glyph unicode="&#xe916;" glyph-name="Settings" d="M515.413 594.773c-85.333 0-150.187-64.853-150.187-146.773s64.853-146.773 146.773-146.773c81.92 0 146.773 64.853 146.773 146.773s-64.853 146.773-143.36 146.773zM918.187 526.507c-17.067 3.413-37.547 17.067-40.96 34.133l-27.307 64.853c-6.827 17.067-6.827 40.96 3.413 54.613l40.96 54.613c10.24 13.653 10.24 37.547-3.413 51.2l-47.787 47.787c-13.653 10.24-34.133 13.653-51.2 3.413l-54.613-40.96c-13.653-10.24-37.547-13.653-54.613-3.413l-64.853 27.307c-17.067 6.827-34.133 23.893-34.133 40.96l-10.24 68.267c-3.413 17.067-20.48 34.133-37.547 34.133 0 0-10.24 0-34.133 0-20.48 0-34.133 0-34.133 0-17.067-3.413-34.133-17.067-37.547-34.133l-10.24-68.267c-3.413-17.067-17.067-37.547-34.133-40.96l-51.2-34.133c-13.653-6.827-40.96-6.827-54.613 6.827l-54.613 40.96c-13.653 10.24-37.547 10.24-51.2-3.413l-44.373-44.373c-10.24-13.653-13.653-34.133-3.413-51.2l40.96-54.613c10.24-13.653 13.653-37.547 3.413-54.613l-27.307-64.853c-6.827-17.067-23.893-34.133-40.96-34.133l-68.267-10.24c-17.067-3.413-34.133-20.48-34.133-37.547 0 0 0-10.24 0-34.133 0-20.48 0-34.133 0-34.133 3.413-17.067 17.067-34.133 34.133-37.547l68.267-10.24c17.067-3.413 37.547-17.067 40.96-34.133l27.307-64.853c6.827-17.067 6.827-40.96-3.413-54.613l-40.96-54.613c-10.24-13.653-13.653-34.133-6.827-40.96 6.827-10.24 27.307-30.72 27.307-30.72s6.827-6.827 17.067-13.653c10.24-6.827 44.373-20.48 58.027-10.24l54.613 40.96c13.653 10.24 37.547 13.653 54.613 3.413l64.853-27.307c17.067-6.827 34.133-23.893 34.133-40.96l10.24-68.267c3.413-17.067 20.48-34.133 37.547-34.133 0 0 10.24 0 34.133 0 20.48 0 34.133 0 34.133 0 17.067 3.413 34.133 17.067 37.547 34.133l10.24 68.267c3.413 17.067 17.067 37.547 34.133 40.96l61.44 27.307c17.067 6.827 40.96 6.827 54.613-3.413l54.613-40.96c13.653-10.24 37.547-10.24 51.2 3.413l47.787 47.787c10.24 13.653 13.653 34.133 3.413 51.2l-40.96 54.613c-10.24 13.653-13.653 37.547-3.413 54.613l27.307 64.853c6.827 17.067 23.893 34.133 40.96 34.133l68.267 10.24c17.067 3.413 34.133 20.48 34.133 37.547 0 0 0 10.24 0 34.133 0 20.48 0 34.133 0 34.133-3.413 17.067-17.067 34.133-34.133 37.547l-75.093 3.413zM512 205.653c-133.12 0-242.347 109.227-242.347 242.347s109.227 242.347 242.347 242.347c133.12 0 242.347-109.227 242.347-242.347s-109.227-242.347-242.347-242.347z" />
<glyph unicode="&#xe917;" glyph-name="Style" d="M17.067 338.773c-20.48-20.48-20.48-54.613 0-78.507l310.613-310.613c20.48-20.48 54.613-20.48 78.507 0l211.627 215.040-375.467 392.533-225.28-218.453zM894.293 956.587c-75.093-13.653-157.013-95.573-215.040-221.867-17.067-34.133-37.547-54.613-68.267-58.027-58.027-10.24-133.12 34.133-177.493 75.093-10.24 10.24-23.893 10.24-34.133 0l-47.787-44.373-47.787-47.787c-10.24-10.24-10.24-23.893 0-34.133l385.707-385.707c10.24-10.24 23.893-10.24 34.133 0l95.573 95.573c10.24 10.24 10.24 23.893 0 34.133-44.373 44.373-88.747 119.467-78.507 177.493 6.827 30.72 23.893 54.613 58.027 68.267 126.293 58.027 208.213 136.533 221.867 215.040 6.827 37.547-3.413 71.68-30.72 95.573-23.893 27.307-58.027 37.547-95.573 30.72zM942.080 833.707c0-40.96-51.2-85.333-92.16-85.333-23.893 0-34.133 6.827-34.133 34.133 0 40.96 51.2 92.16 85.333 92.16 20.48 3.413 40.96-17.067 40.96-40.96z" />
<glyph unicode="&#xe918;" glyph-name="View-all" d="M416.427 751.787c0-114.993-93.22-208.213-208.213-208.213s-208.213 93.22-208.213 208.213c0 114.993 93.22 208.213 208.213 208.213s208.213-93.22 208.213-208.213zM1024 751.787c0-114.993-93.22-208.213-208.213-208.213s-208.213 93.22-208.213 208.213c0 114.993 93.22 208.213 208.213 208.213s208.213-93.22 208.213-208.213zM416.427 144.213c0-114.993-93.22-208.213-208.213-208.213s-208.213 93.22-208.213 208.213c0 114.993 93.22 208.213 208.213 208.213s208.213-93.22 208.213-208.213zM1024 144.213c0-114.993-93.22-208.213-208.213-208.213s-208.213 93.22-208.213 208.213c0 114.993 93.22 208.213 208.213 208.213s208.213-93.22 208.213-208.213z" />
<glyph unicode="&#xe919;" glyph-name="Welcome-message" d="M771.413 533.333c-13.653-34.133-30.72-68.267-44.373-102.4-3.413-6.827-3.413-17.067-3.413-23.893-3.413-47.787-13.653-92.16-30.72-136.533-6.827-17.067-17.067-34.133-30.72-51.2-13.653-13.653-34.133-23.893-54.613-27.307-27.307-6.827-58.027-6.827-85.333-6.827-105.813 0-174.080 92.16-180.907 98.987-27.307 44.373-58.027 85.333-85.333 129.707 0 0 0 0 0 3.413 6.827 3.413 13.653 10.24 20.48 13.653 17.067 10.24 37.547 10.24 54.613 0 13.653-6.827 20.48-17.067 30.72-27.307 6.827-6.827 17.067-17.067 23.893-23.893 0 0 3.413-3.413 3.413-3.413 10.24-6.827 20.48-10.24 30.72 3.413 6.827 10.24 10.24 20.48 10.24 34.133 0 20.48-3.413 37.547-6.827 54.613-10.24 51.2-20.48 102.4-27.307 153.6 0 6.827 0 17.067 0 23.893 3.413 13.653 10.24 23.893 23.893 27.307s23.893 0 34.133-10.24c6.827-6.827 10.24-13.653 10.24-20.48 13.653-47.787 20.48-98.987 30.72-146.773 0-6.827 10.24-3.413 10.24 0 0 0-3.413 160.427-3.413 187.733 0 10.24 0 17.067 0 27.307 3.413 20.48 20.48 30.72 40.96 30.72s34.133-17.067 34.133-37.547c0-13.653 0-30.72 0-44.373 0-40.96 0-167.253 0-167.253 0-3.413 10.24-6.827 10.24 0 0 3.413 23.893 153.6 23.893 153.6 3.413 20.48 23.893 34.133 40.96 30.72 23.893-3.413 37.547-23.893 34.133-44.373-3.413-23.893-27.307-122.88-30.72-146.773 0-6.827 6.827-6.827 6.827-3.413-3.413-3.413 37.547 85.333 37.547 85.333 10.24 20.48 30.72 27.307 47.787 20.48 23.893-13.653 30.72-34.133 23.893-54.613zM1013.76 536.747c-23.893 105.813-81.92 187.733-167.253 252.587-102.4 78.507-218.453 112.64-344.747 112.64-58.027 0-122.88-10.24-180.907-34.133-122.88-44.373-218.453-119.467-279.893-238.933-40.96-81.92-51.2-167.253-34.133-256 13.653-68.267 40.96-129.707 85.333-184.32 3.413-3.413 3.413-6.827 0-13.653-10.24-17.067-27.307-34.133-44.373-44.373-20.48-13.653-27.307-34.133-20.48-58.027s20.48-40.96 47.787-44.373c61.44-10.24 119.467-3.413 177.493 20.48 6.827 3.413 10.24 3.413 17.067 0 133.12-61.44 273.067-75.093 413.013-30.72 119.467 37.547 218.453 105.813 283.307 215.040 54.613 95.573 71.68 197.973 47.787 303.787z" />
<glyph unicode="&#xe91a;" d="M252.587 581.12c0 64.853 20.48 122.88 71.68 167.253 13.653 13.653 30.72 23.893 51.2 30.72 30.72 6.827 58.027-3.413 81.92-20.48 6.827-3.413 10.24-10.24 10.24-17.067 10.24-27.307 17.067-54.613 27.307-85.333 3.413-10.24 3.413-20.48 10.24-27.307 13.653-34.133-3.413-75.093-30.72-92.16-6.827-3.413-17.067-10.24-20.48-17.067-17.067-20.48-17.067-44.373-6.827-64.853 13.653-23.893 27.307-51.2 44.373-75.093 20.48-34.133 51.2-40.96 88.747-23.893 23.893 13.653 51.2 13.653 75.093 0 6.827-3.413 13.653-6.827 17.067-13.653 27.307-30.72 58.027-58.027 85.333-88.747 17.067-17.067 20.48-37.547 10.24-58.027-13.653-34.133-34.133-58.027-68.267-68.267-68.267-23.893-133.12-17.067-194.56 20.48-47.787 27.307-85.333 68.267-116.053 116.053-34.133 51.2-64.853 105.813-92.16 157.013-23.893 40.96-37.547 88.747-40.96 136.533-3.413 10.24-3.413 17.067-3.413 23.893z" />
</font>
</defs>
</svg>
